<svg width="25" height="24" viewBox="0 0 25 24" fill="none" xmlns="http://www.w3.org/2000/svg">
<g opacity="0.8">
<path d="M12.5 2.25C10.5716 2.25 8.68657 2.82183 7.08319 3.89317C5.47982 4.96451 4.23013 6.48726 3.49218 8.26884C2.75422 10.0504 2.56114 12.0108 2.93735 13.9021C3.31355 15.7934 4.24215 17.5307 5.60571 18.8943C6.96928 20.2579 8.70656 21.1865 10.5979 21.5627C12.4892 21.9389 14.4496 21.7458 16.2312 21.0078C18.0127 20.2699 19.5355 19.0202 20.6068 17.4168C21.6782 15.8134 22.25 13.9284 22.25 12C22.2473 9.41498 21.2192 6.93661 19.3913 5.10872C17.5634 3.28084 15.085 2.25273 12.5 2.25ZM12.5 20.25C10.8683 20.25 9.27326 19.7661 7.91655 18.8596C6.55984 17.9531 5.50242 16.6646 4.878 15.1571C4.25358 13.6496 4.0902 11.9908 4.40853 10.3905C4.72685 8.79016 5.51259 7.32015 6.66637 6.16637C7.82016 5.01259 9.29017 4.22685 10.8905 3.90852C12.4909 3.59019 14.1497 3.75357 15.6571 4.37799C17.1646 5.00242 18.4531 6.05984 19.3596 7.41655C20.2661 8.77325 20.75 10.3683 20.75 12C20.7475 14.1873 19.8775 16.2843 18.3309 17.8309C16.7843 19.3775 14.6873 20.2475 12.5 20.25ZM9.60032 9.39937C10.0242 10.2007 10.2457 11.0935 10.2457 12C10.2457 12.9065 10.0242 13.7993 9.60032 14.6006C9.55549 14.6898 9.49332 14.7691 9.41744 14.8339C9.34157 14.8988 9.25352 14.9478 9.15845 14.9782C9.06338 15.0085 8.96321 15.0196 8.8638 15.0108C8.76439 15.002 8.66775 14.9734 8.57953 14.9267C8.49132 14.88 8.4133 14.8162 8.35006 14.739C8.28681 14.6618 8.23961 14.5728 8.21122 14.4771C8.18283 14.3814 8.17382 14.281 8.18472 14.1818C8.19562 14.0826 8.22621 13.9866 8.27469 13.8994C8.58856 13.3155 8.75284 12.6629 8.75284 12C8.75284 11.3371 8.58856 10.6845 8.27469 10.1006C8.18655 9.92531 8.17063 9.72244 8.23034 9.53553C8.29005 9.34861 8.42063 9.19254 8.59407 9.10079C8.76752 9.00903 8.97002 8.98891 9.15813 9.04473C9.34624 9.10055 9.50499 9.22787 9.60032 9.39937ZM14.8503 6.39937C15.7728 8.12305 16.2555 10.0478 16.2555 12.0028C16.2555 13.9578 15.7728 15.8826 14.8503 17.6063C14.7505 17.7702 14.5915 17.8896 14.4063 17.9399C14.221 17.9902 14.0235 17.9676 13.8544 17.8766C13.6854 17.7856 13.5576 17.6333 13.4975 17.451C13.4374 17.2687 13.4495 17.0702 13.5313 16.8966C14.3379 15.3905 14.76 13.7085 14.76 12C14.76 10.2915 14.3379 8.60949 13.5313 7.10344C13.4375 6.9279 13.4174 6.72231 13.4752 6.5319C13.533 6.34149 13.6642 6.18186 13.8397 6.08813C14.0152 5.99439 14.2208 5.97422 14.4112 6.03207C14.6016 6.08991 14.7613 6.22102 14.855 6.39656L14.8503 6.39937ZM12.2253 7.89937C12.8986 9.162 13.2508 10.5709 13.2508 12.0019C13.2508 13.4328 12.8986 14.8417 12.2253 16.1044C12.18 16.1931 12.1175 16.2718 12.0415 16.3361C11.9654 16.4004 11.8773 16.4488 11.7823 16.4787C11.6873 16.5086 11.5874 16.5192 11.4882 16.51C11.3891 16.5008 11.2927 16.472 11.2048 16.4252C11.117 16.3784 11.0393 16.3145 10.9763 16.2374C10.9134 16.1603 10.8664 16.0713 10.8382 15.9759C10.8099 15.8804 10.801 15.7802 10.8119 15.6812C10.8228 15.5823 10.8533 15.4864 10.9016 15.3994C11.4593 14.3538 11.7511 13.1869 11.7511 12.0019C11.7511 10.8168 11.4593 9.64998 10.9016 8.60437C10.8533 8.5173 10.8228 8.42149 10.8119 8.32251C10.801 8.22353 10.8099 8.12338 10.8382 8.02789C10.8664 7.9324 10.9134 7.84349 10.9763 7.76635C11.0393 7.6892 11.117 7.62536 11.2048 7.57856C11.2927 7.53175 11.3891 7.50291 11.4882 7.49373C11.5874 7.48454 11.6873 7.49519 11.7823 7.52505C11.8773 7.55492 11.9654 7.6034 12.0415 7.66766C12.1175 7.73193 12.18 7.8107 12.2253 7.89937Z" fill="#F9FAFB"/>
</g>
</svg>
