<svg width="20" height="20" viewBox="0 0 20 20" fill="none" xmlns="http://www.w3.org/2000/svg">
<path d="M3.63801 10.7371L3.638 10.7371C3.50197 10.6011 3.31748 10.5246 3.1251 10.5246C2.93273 10.5246 2.74823 10.6011 2.61221 10.7371C2.47618 10.8731 2.39976 11.0576 2.39976 11.25C2.39976 11.4424 2.47618 11.6269 2.61221 11.7629L6.98717 16.1378C6.98718 16.1379 6.98719 16.1379 6.9872 16.1379C7.05453 16.2053 7.13448 16.2587 7.22247 16.2952L7.26077 16.2028L7.22247 16.2952C7.31049 16.3317 7.40483 16.3505 7.5001 16.3505C7.59538 16.3505 7.68972 16.3317 7.77773 16.2952C7.86573 16.2587 7.94568 16.2053 8.013 16.1379C8.01301 16.1379 8.01303 16.1379 8.01304 16.1378L18.013 6.13788C18.149 6.00185 18.2255 5.81736 18.2255 5.62498C18.2255 5.43261 18.149 5.24811 18.013 5.11208C17.877 4.97605 17.6925 4.89963 17.5001 4.89963C17.3077 4.89963 17.1232 4.97605 16.9872 5.11208L16.9872 5.11209L7.50011 14.6L3.63801 10.7371Z" fill="#1B873F" stroke="#1B873F" stroke-width="0.2"/>
</svg>
