<svg width="24" height="24" viewBox="0 0 24 24" fill="none" xmlns="http://www.w3.org/2000/svg">
<path fill-rule="evenodd" clip-rule="evenodd" d="M16.809 5.02852C17.0828 5.02835 17.3453 5.13701 17.5389 5.33056L18.6686 6.46025C18.8621 6.6538 18.9708 6.91637 18.9706 7.19009C18.9704 7.46381 18.8615 7.72624 18.6677 7.91955L5.88017 20.6756C5.78435 20.7712 5.67066 20.847 5.54558 20.8987L3.67433 21.6717C3.28916 21.8308 2.84608 21.7424 2.5514 21.4477C2.25673 21.153 2.16837 20.71 2.32748 20.3248L3.10044 18.4536C3.15211 18.3285 3.2279 18.2148 3.32348 18.119L16.0796 5.33146C16.2729 5.13767 16.5353 5.02869 16.809 5.02852Z" fill="#E1E1E6"/>
<path fill-rule="evenodd" clip-rule="evenodd" d="M19.2184 2.38737C19.4375 2.29664 19.6722 2.24994 19.9093 2.24994C20.1464 2.24994 20.3811 2.29664 20.6001 2.38737C20.8191 2.47809 21.0181 2.61106 21.1858 2.77869L21.1858 2.77873L21.2212 2.81412C21.5594 3.15261 21.7494 3.61156 21.7494 4.09008C21.7494 4.5686 21.5594 5.02755 21.2212 5.36604L20.6682 5.91897C20.2655 6.3217 19.6126 6.3217 19.2098 5.91897L18.0802 4.78928C17.8867 4.59583 17.7781 4.33344 17.7781 4.05986C17.7782 3.78628 17.8869 3.52394 18.0805 3.33057L18.6328 2.77873C18.6328 2.77866 18.6329 2.77858 18.633 2.77851L18.6331 2.77838C18.8007 2.6109 18.9996 2.47804 19.2184 2.38737Z" fill="#E1E1E6"/>
</svg>
