<svg width="24" height="24" viewBox="0 0 24 24" fill="none" xmlns="http://www.w3.org/2000/svg">
<path d="M16.8538 16.1462C16.9002 16.1927 16.9371 16.2478 16.9622 16.3085C16.9874 16.3692 17.0003 16.4343 17.0003 16.5C17.0003 16.5657 16.9874 16.6307 16.9622 16.6914C16.9371 16.7521 16.9002 16.8073 16.8538 16.8537C16.8073 16.9002 16.7522 16.937 16.6915 16.9622C16.6308 16.9873 16.5657 17.0002 16.5 17.0002C16.4343 17.0002 16.3693 16.9873 16.3086 16.9622C16.2479 16.937 16.1927 16.9002 16.1463 16.8537L12 12.7068L7.85378 16.8537C7.75996 16.9475 7.63272 17.0002 7.50003 17.0002C7.36735 17.0002 7.2401 16.9475 7.14628 16.8537C7.05246 16.7599 6.99976 16.6327 6.99976 16.5C6.99976 16.3673 7.05246 16.24 7.14628 16.1462L11.2932 12L7.14628 7.85372C7.05246 7.7599 6.99976 7.63265 6.99976 7.49997C6.99976 7.36729 7.05246 7.24004 7.14628 7.14622C7.2401 7.0524 7.36735 6.99969 7.50003 6.99969C7.63272 6.99969 7.75996 7.0524 7.85378 7.14622L12 11.2931L16.1463 7.14622C16.2401 7.0524 16.3674 6.99969 16.5 6.99969C16.6327 6.99969 16.76 7.0524 16.8538 7.14622C16.9476 7.24004 17.0003 7.36729 17.0003 7.49997C17.0003 7.63265 16.9476 7.7599 16.8538 7.85372L12.7069 12L16.8538 16.1462Z" fill="#794FED"/>
</svg>
