<svg width="48" height="48" viewBox="0 0 48 48" fill="none" xmlns="http://www.w3.org/2000/svg">
<path d="M46.4999 24C46.5094 27.5722 45.3505 31.0495 43.1999 33.9019C43.0815 34.0595 42.9332 34.1922 42.7635 34.2924C42.5937 34.3927 42.4059 34.4586 42.2108 34.4862C42.0156 34.5139 41.8169 34.5029 41.6259 34.4538C41.435 34.4047 41.2557 34.3184 41.0981 34.2C40.9405 34.0816 40.8078 33.9332 40.7075 33.7635C40.6072 33.5938 40.5414 33.406 40.5137 33.2108C40.486 33.0156 40.497 32.8169 40.5462 32.626C40.5953 32.4351 40.6815 32.2557 40.7999 32.0981C42.5602 29.7661 43.5086 26.9218 43.4999 24C43.4999 20.4196 42.0776 16.9858 39.5459 14.4541C37.0141 11.9223 33.5804 10.5 29.9999 10.5C26.4195 10.5 22.9857 11.9223 20.454 14.4541C17.9223 16.9858 16.4999 20.4196 16.4999 24C16.4999 24.3978 16.3419 24.7793 16.0606 25.0607C15.7793 25.342 15.3978 25.5 14.9999 25.5C14.6021 25.5 14.2206 25.342 13.9393 25.0607C13.658 24.7793 13.4999 24.3978 13.4999 24C13.4992 22.4863 13.7068 20.9796 14.1168 19.5225C13.9124 19.5 13.7062 19.5 13.4999 19.5C11.113 19.5 8.82381 20.4482 7.13599 22.136C5.44816 23.8239 4.49995 26.113 4.49995 28.5C4.49995 30.8869 5.44816 33.1761 7.13599 34.864C8.82381 36.5518 11.113 37.5 13.4999 37.5H17.9999C18.3978 37.5 18.7793 37.658 19.0606 37.9393C19.3419 38.2206 19.4999 38.6022 19.4999 39C19.4999 39.3978 19.3419 39.7794 19.0606 40.0607C18.7793 40.342 18.3978 40.5 17.9999 40.5H13.4999C11.8503 40.5004 10.2182 40.1606 8.70578 39.5019C7.19332 38.8432 5.83291 37.8798 4.70952 36.6717C3.58614 35.4636 2.7239 34.0369 2.17667 32.4807C1.62944 30.9244 1.40896 29.272 1.52901 27.6267C1.64906 25.9814 2.10706 24.3786 2.8744 22.9182C3.64174 21.4579 4.70195 20.1714 5.9888 19.1392C7.27564 18.107 8.7615 17.3512 10.3536 16.9191C11.9456 16.4869 13.6097 16.3877 15.2418 16.6275C16.9038 13.3034 19.6393 10.6378 23.0053 9.0623C26.3713 7.48685 30.1705 7.09386 33.7877 7.947C37.4049 8.80014 40.6281 10.8494 42.9353 13.763C45.2425 16.6765 46.4985 20.2836 46.4999 24ZM29.5612 22.9387C29.4219 22.7993 29.2565 22.6886 29.0744 22.6132C28.8923 22.5377 28.6971 22.4988 28.4999 22.4988C28.3028 22.4988 28.1076 22.5377 27.9255 22.6132C27.7434 22.6886 27.578 22.7993 27.4387 22.9387L21.4387 28.9387C21.2993 29.0781 21.1888 29.2436 21.1134 29.4256C21.0379 29.6077 20.9991 29.8029 20.9991 30C20.9991 30.1971 21.0379 30.3922 21.1134 30.5743C21.1888 30.7564 21.2993 30.9219 21.4387 31.0612C21.7202 31.3427 22.1019 31.5008 22.4999 31.5008C22.697 31.5008 22.8922 31.462 23.0743 31.3866C23.2564 31.3112 23.4218 31.2006 23.5612 31.0612L26.9999 27.6206V39C26.9999 39.3978 27.158 39.7794 27.4393 40.0607C27.7206 40.342 28.1021 40.5 28.4999 40.5C28.8978 40.5 29.2793 40.342 29.5606 40.0607C29.8419 39.7794 29.9999 39.3978 29.9999 39V27.6206L33.4387 31.0612C33.5781 31.2006 33.7435 31.3112 33.9256 31.3866C34.1077 31.462 34.3029 31.5008 34.4999 31.5008C34.697 31.5008 34.8922 31.462 35.0743 31.3866C35.2564 31.3112 35.4218 31.2006 35.5612 31.0612C35.7006 30.9219 35.8111 30.7564 35.8865 30.5743C35.962 30.3922 36.0008 30.1971 36.0008 30C36.0008 29.8029 35.962 29.6077 35.8865 29.4256C35.8111 29.2436 35.7006 29.0781 35.5612 28.9387L29.5612 22.9387Z" fill="#7C3AED"/>
</svg>
