<svg width="14" height="19" viewBox="0 0 14 19" fill="none" xmlns="http://www.w3.org/2000/svg">
<path d="M13.7188 8.39233H8.25C7.75272 8.39233 7.2758 8.19479 6.92417 7.84316C6.57254 7.49153 6.375 7.01462 6.375 6.51733V1.04858C6.375 1.00714 6.35854 0.967401 6.32924 0.938099C6.29993 0.908796 6.26019 0.892334 6.21875 0.892334H2.625C1.96196 0.892334 1.32607 1.15573 0.857233 1.62457C0.388392 2.09341 0.125 2.72929 0.125 3.39233V15.8923C0.125 16.5554 0.388392 17.1913 0.857233 17.6601C1.32607 18.1289 1.96196 18.3923 2.625 18.3923H11.375C12.038 18.3923 12.6739 18.1289 13.1428 17.6601C13.6116 17.1913 13.875 16.5554 13.875 15.8923V8.54858C13.875 8.50714 13.8585 8.4674 13.8292 8.4381C13.7999 8.4088 13.7602 8.39233 13.7188 8.39233ZM10.125 14.6423H3.875C3.70924 14.6423 3.55027 14.5765 3.43306 14.4593C3.31585 14.3421 3.25 14.1831 3.25 14.0173C3.25 13.8516 3.31585 13.6926 3.43306 13.5754C3.55027 13.4582 3.70924 13.3923 3.875 13.3923H10.125C10.2908 13.3923 10.4497 13.4582 10.5669 13.5754C10.6842 13.6926 10.75 13.8516 10.75 14.0173C10.75 14.1831 10.6842 14.3421 10.5669 14.4593C10.4497 14.5765 10.2908 14.6423 10.125 14.6423ZM10.125 11.5173H3.875C3.70924 11.5173 3.55027 11.4515 3.43306 11.3343C3.31585 11.2171 3.25 11.0581 3.25 10.8923C3.25 10.7266 3.31585 10.5676 3.43306 10.4504C3.55027 10.3332 3.70924 10.2673 3.875 10.2673H10.125C10.2908 10.2673 10.4497 10.3332 10.5669 10.4504C10.6842 10.5676 10.75 10.7266 10.75 10.8923C10.75 11.0581 10.6842 11.2171 10.5669 11.3343C10.4497 11.4515 10.2908 11.5173 10.125 11.5173Z" fill="#CAB3FF"/>
<path d="M13.3758 7.00913L7.7582 1.39155C7.74728 1.38069 7.73339 1.3733 7.71828 1.37032C7.70317 1.36733 7.68751 1.36888 7.67327 1.37476C7.65904 1.38065 7.64686 1.39061 7.63827 1.4034C7.62968 1.41619 7.62506 1.43123 7.625 1.44663V6.51733C7.625 6.68309 7.69085 6.84207 7.80806 6.95928C7.92527 7.07649 8.08424 7.14233 8.25 7.14233H13.3207C13.3361 7.14227 13.3511 7.13765 13.3639 7.12906C13.3767 7.12047 13.3867 7.1083 13.3926 7.09406C13.3985 7.07983 13.4 7.06417 13.397 7.04906C13.394 7.03395 13.3866 7.02005 13.3758 7.00913Z" fill="#CAB3FF"/>
</svg>
